<?xml version="1.0" encoding="utf-8"?>
<!-- Generator: Adobe Illustrator 26.0.2, SVG Export Plug-In . SVG Version: 6.00 Build 0)  -->
<svg version="1.1" id="Layer_1" xmlns="http://www.w3.org/2000/svg" xmlns:xlink="http://www.w3.org/1999/xlink" x="0px" y="0px"
	 viewBox="0 0 105 28" style="enable-background:new 0 0 105 28;" xml:space="preserve">
<style type="text/css">
	.st0{fill:#89664D;}
	.st1{fill:#FDD0AD;}
	.st2{fill:#D2976D;}
	.st3{fill:#D0D1D0;}
	.st4{fill:#FFFFFF;}
</style>
<g>
	<g>
		<g>
			<polygon class="st0" points="13.2,20.3 6.2,16.1 6.2,10.5 13.2,14.7 			"/>
			<polygon class="st1" points="13.2,14.7 13.2,20.3 20.2,16.1 20.2,10.5 			"/>
			<polygon class="st2" points="6.2,10.5 13.2,14.7 20.2,10.5 13.2,6.3 			"/>
			<polygon class="st0" points="17.3,12.2 10.3,8 9,8.8 16,13 			"/>
			<polygon class="st3" points="14.8,7.8 13.2,6.8 11.9,7.6 13.4,8.6 			"/>
			<polygon class="st2" points="17.3,12.2 16,13 16,15 17.3,14.3 			"/>
			<polygon class="st4" points="19.8,11.1 18.6,11.9 18.6,13.9 19.8,13.2 			"/>
			<polygon class="st4" points="15.3,15.8 13.6,16.8 13.6,19.6 15.3,18.6 			"/>
			<polygon class="st2" points="16,18.6 17.3,17.8 17.3,15.8 16,16.6 			"/>
		</g>
		<path d="M29.4,8.9c2.5,0,3.1,0.6,3.1,3.1c0,2.4-0.6,3.1-2.9,3.2h-3v3.1h-2.5V8.9H29.4z M28.8,13c1.1,0,1.2-0.1,1.2-1
			c0-1-0.1-1.1-1.2-1.1h-2.2V13H28.8z"/>
		<path d="M36.7,18.2h-1.3c-1.5,0-1.9-0.4-1.9-2V8.6h2.3v6.9c0,0.6,0.1,0.6,0.9,0.6V18.2z"/>
		<path d="M44.5,13.4v4.8h-2.3v-1c-0.2,0.8-0.9,1.1-2,1.1c-2.2,0.1-2.8-0.4-2.8-2.2c0-1.8,0.6-2.2,2.7-2.2l2,0v-0.4
			c0-0.9-0.1-1-1.1-1c-1.1,0-1.2,0.1-1.2,0.9h-2.3v-0.3c0-1.9,0.7-2.4,3.5-2.4C43.9,10.9,44.5,11.4,44.5,13.4z M41.2,16.7
			c0.8,0,1.1-0.3,1.1-0.8v-0.3l-1.1,0c-1.2,0-1.3,0-1.3,0.5C39.9,16.7,40,16.7,41.2,16.7z"/>
		<path d="M49,16.7c1.2,0,1.3-0.1,1.3-0.6c0-0.4-0.3-0.5-1.7-0.8c-2.4-0.5-3.1-0.9-3.1-2.3c0-1.7,0.7-2.2,3.5-2.2
			c2.8,0,3.5,0.5,3.5,2.4v0.2h-2.3v-0.2c0-0.7-0.1-0.8-1.2-0.8c-1,0-1.1,0.1-1.1,0.6c0,0.3,0.2,0.4,1,0.6c3,0.5,3.8,1,3.8,2.6
			c0,1.7-0.7,2.1-3.6,2.1c-3,0-3.7-0.5-3.7-2.4v-0.2h2.3V16C47.7,16.6,47.8,16.7,49,16.7z"/>
		<path d="M58.6,18.2h-1.4c-2.3,0-2.9-0.5-2.9-2.4v-2.9h-0.7V11h0.8V9.5h2.2V11h1.9v1.9h-1.9v2.3c0,0.9,0.1,1,0.8,1h1.2V18.2z"/>
		<path d="M63.2,18.4c-2.9,0-3.7-0.7-3.7-3.7c0-3,0.7-3.7,3.7-3.7c2.8,0,3.6,0.7,3.7,3.3v1.1H62c0,1.3,0.3,1.4,1.3,1.4
			c0.9,0,1.2-0.2,1.2-0.8h2.4C66.8,17.9,66,18.4,63.2,18.4z M64.5,13.6c0-0.9-0.2-1-1.2-1c-0.9,0-1.2,0.1-1.2,1H64.5z"/>
		<path d="M70.1,11v1.3c0.2-0.9,0.9-1.3,2.1-1.3H73v2l-1.6,0c-0.9,0-1.3,0.3-1.3,1.1v4h-2.3V11H70.1z"/>
		<path d="M79.5,8.9c2,0,2.6,0.5,2.6,2.4c0,1.3-0.6,2-1.7,2.2c1.4,0.1,2.1,0.9,2.1,2.3c0,2-0.7,2.5-3,2.5h-5.6V8.9H79.5z M78.5,12.5
			c0.7,0,1-0.3,1-0.9c0-0.8-0.1-0.9-1-0.9h-2.1v1.7H78.5z M78.7,16.3c1,0,1.1-0.1,1.1-0.9c0-0.7-0.3-0.9-1.1-0.9h-2.4v1.9H78.7z"/>
		<path d="M87.1,10.9c3,0,3.8,0.7,3.8,3.7c0,3-0.8,3.7-3.8,3.7c-3,0-3.8-0.7-3.8-3.7C83.3,11.6,84,10.9,87.1,10.9z M85.7,14.6
			c0,1.8,0.1,1.9,1.4,1.9s1.4-0.2,1.4-1.9s-0.1-1.9-1.4-1.9S85.7,12.9,85.7,14.6z"/>
		<path d="M93.8,11l1.1,2.3H95l1.2-2.3h2.4l-2.1,3.5l2.6,3.7h-2.6L95,15.7h-0.1l-1.3,2.6h-2.4l2.3-3.7L91.4,11H93.8z"/>
	</g>
</g>
</svg>
